<svg width="40" height="34" viewBox="0 0 40 34" fill="none" xmlns="http://www.w3.org/2000/svg">
<path fill-rule="evenodd" clip-rule="evenodd" d="M17.6364 2.2226C18.9415 0.111109 21.0606 0.116141 22.3626 2.2226L38.5402 28.3961C40.2825 31.2149 39.0133 33.5 35.7071 33.5H4.2918C0.984852 33.5 -0.289176 31.224 1.45874 28.3961L17.6364 2.2226ZM20 23C20.8285 23 21.5 22.3205 21.5 21.5045V12.4956C21.5 11.6696 20.8342 11 20 11C19.1716 11 18.5 11.6796 18.5 12.4956V21.5045C18.5 22.3304 19.1658 23 20 23ZM20 29C20.8285 29 21.5 28.3284 21.5 27.5C21.5 26.6716 20.8285 26 20 26C19.1716 26 18.5 26.6716 18.5 27.5C18.5 28.3284 19.1716 29 20 29Z" fill="#D74530"/>
</svg>
